<svg class="icon" viewBox="0 0 1024 1024" xmlns="http://www.w3.org/2000/svg" width="32" height="32">
    <path
        d="M682.666 682.668H455.111V568.891h227.555v113.777z m0-455.113H568.889v113.777h113.777v227.555H341.334V227.555h113.777V113.777h227.555v113.778z m227.556 341.332H682.667V455.109h227.555v113.778zM341.333 455.109H227.556V341.332h113.777v113.777zM227.556 341.332H113.777V227.555h113.779v113.777z m568.888-113.777H682.667V113.777h113.777v113.778z"
        fill="#FBE294"></path>
    <path d="M341.333 910.223V1024H227.556V910.223h113.777z m455.111 0V1024H682.667V910.223h113.777z" fill="#AF5B42">
    </path>
    <path d="M796.444 341.332v113.777H682.666V341.332h113.778z m0-341.332v113.777H682.666V0h113.778z" fill="#FD654B">
    </path>
    <path d="M796.444 227.555v113.777H682.666V227.555h113.778z" fill="#FBC837"></path>
    <path d="M682.666 227.555v113.777H568.889V227.555h113.777z" fill="#222423"></path>
    <path
        d="M341.333 910.223H113.777V796.445h227.556v113.778z m341.333-113.778v113.778H341.334V796.445h341.332z m227.556 113.778H682.667V796.445h227.555v113.778z"
        fill="#766153"></path>
    <path d="M682.666 682.668v113.777H568.889V682.668h113.777zM341.333 568.891v113.777H227.556V568.891h113.777z"
        fill="#FF9338"></path>
</svg>