<svg class="icon" viewBox="0 0 1024 1024" xmlns="http://www.w3.org/2000/svg" width="24" height="24">
    <path
        d="M880.64 204.8h-737.28A61.44 61.44 0 0 0 81.92 265.0112v493.9776a61.44 61.44 0 0 0 18.0224 43.4176 59.8016 59.8016 0 0 0 41.7792 16.7936h737.28a61.44 61.44 0 0 0 61.44-61.44v-491.52A61.44 61.44 0 0 0 880.64 204.8z m0 573.44h-737.28a20.8896 20.8896 0 0 1-20.48-20.48V341.1968l358.8096 206.848a58.9824 58.9824 0 0 0 61.44 0L901.12 341.1968v417.792a20.48 20.48 0 0 1-20.48 19.2512zM901.12 294.0928l-378.88 218.7264a20.48 20.48 0 0 1-20.48 0L122.88 294.0928v-29.0816A20.48 20.48 0 0 1 143.36 245.76h737.28a20.48 20.48 0 0 1 20.48 20.48v26.624z"
        fill="#2c2c2c"></path>
</svg>