<svg class="icon" viewBox="0 0 1024 1024" xmlns="http://www.w3.org/2000/svg" width="24" height="24" stroke="none">
    <path
        d="M970.98512 120.33229H53.517952c-21.157046 0-38.509848 15.792642-38.509848 35.572926v712.463392c0 19.300137 17.351529 35.318206 38.509848 35.318206h917.467168c20.656521 0 38.009323-16.018069 38.009323-35.318206V155.905216c0-19.785378-17.352802-35.572926-38.009323-35.572926z m-38.484376 712.995757H91.496709v-77.893386l197.229721-181.814064 135.909693 125.230556v0.231795l0.550196 0.50944 0.276371 0.25472 0.525997 0.485242 0.275097 0.25472 0.550196 0.485242 80.299216 74.403721a25.078461 25.078461 0 0 0 32.550673 0c8.6885-8.533121 8.6885-22.04984 0-30.048049l-65.651541-60.113927 185.563543-171.52847 272.921052 251.918112v67.628168z m0-127.473367L675.824462 468.937031a24.409821 24.409821 0 0 0-32.525201 0L441.991473 655.258367l-137.260984-126.225238a23.252118 23.252118 0 0 0-31.999204 0L91.496709 695.338564V190.968702h841.004035V705.85468z m-629.121544-230.903709c72.962006 0 133.205841-55.5901 133.20584-123.220815 0-67.354344-60.241288-122.711375-133.20584-122.711375-73.232009 0-133.205841 55.357031-133.205841 122.711375 0 67.628168 59.967463 123.220815 133.205841 123.220815z m0-203.357011c48.023641 0 87.635153 36.081093 87.635153 80.136196 0 44.586194-39.608965 81.12833-87.635153 81.12833-47.999443 0-87.610955-36.543409-87.610955-81.12833 0-44.055103 39.608965-80.136196 87.610955-80.136196z"
        fill="#2b2b2b"></path>
</svg>