<svg class="icon" viewBox="0 0 1024 1024" xmlns="http://www.w3.org/2000/svg" width="24" height="24">
    <path
        d="M974.966667 91.46a21.333333 21.333333 0 0 0-21.713334-5.033333l-896 298.666666a21.333333 21.333333 0 0 0-4.226666 38.533334L256 545.413333V832a21.333333 21.333333 0 0 0 36.42 15.086667L448 691.506667l240.913333 240.913333a21.333333 21.333333 0 0 0 35.426667-8.666667l256-810.666666a21.333333 21.333333 0 0 0-5.373333-21.626667zM796.666667 183.606667L277.106667 508.32 114.746667 410.906667zM298.666667 545.16l537.82-336.14-403.873334 437.533333L298.666667 780.5z m395.573333 332.24l-216.666667-216.666667 433.333334-469.426666z"
        fill="#2b2b2b"></path>
</svg>