<?xml version="1.0" standalone="no"?><!DOCTYPE svg PUBLIC "-//W3C//DTD SVG 1.1//EN" "http://www.w3.org/Graphics/SVG/1.1/DTD/svg11.dtd"><svg t="1769919537118" class="icon" viewBox="0 0 1024 1024" version="1.1" xmlns="http://www.w3.org/2000/svg" p-id="11372" xmlns:xlink="http://www.w3.org/1999/xlink" width="32" height="32"><path d="M308.8 959.3c-40.1 0-72.7-32.6-72.7-72.7v-341c-27.1-19.1-50.1-48.6-67-86-18.7-41.5-28.6-90.2-28.6-140.7 0-65.5 16.6-127.4 46.6-174.2 31.8-49.6 75-76.9 121.7-76.9s89.9 27.3 121.7 76.9c30.1 46.8 46.6 108.7 46.6 174.2 0 50.6-9.9 99.2-28.6 140.7-16.9 37.4-39.9 66.8-67 86v341c0 40.1-32.6 72.7-72.7 72.7z m0-851.6c-32.6 0-63.8 20.8-88 58.5-26 40.5-40.3 94.7-40.3 152.6 0 88.4 34.5 168.2 85.8 198.7l9.8 5.8v363.3c0 18 14.7 32.7 32.7 32.7s32.7-14.7 32.7-32.7V523.3l9.8-5.8c51.3-30.5 85.8-110.3 85.8-198.7 0-58-14.3-112.2-40.3-152.6-24.2-37.7-55.4-58.5-88-58.5zM702.5 959.3c-21.4 0-43-9.5-61.1-27.7-7.4-7.4-11.7-18-11.7-29.1V554.8c0-0.6-0.8-1.3-1.8-1.8-67.3-32-110.7-103.4-110.7-182V131c0-11 9-20 20-20s20 9 20 20v239.8c0 63.2 34.5 120.5 87.9 145.9 15.2 7.2 24.6 21.8 24.6 37.9v347.8c0 0.5 0.1 0.8 0.2 1 14.3 14.3 30.7 19.2 44.9 13.3 12.4-5.1 20.4-17 20.4-30.3V554.8c0-16.2 9.4-30.7 24.6-37.9 53.4-25.4 87.9-82.7 87.9-145.9V131c0-11 9-20 20-20s20 9 20 20v239.8c0 78.6-43.5 150-110.7 182-1 0.5-1.8 1.3-1.8 1.8v331.8c0 29.5-17.7 55.9-45.1 67.2-8.9 3.9-18.2 5.7-27.6 5.7zM670 903.6z" fill="#2c2c2c" p-id="11373"></path><path d="M655.7 415.4c-11 0-20-9-20-20V131c0-11 9-20 20-20s20 9 20 20v264.4c0 11.1-9 20-20 20zM760.2 415.4c-11 0-20-9-20-20V131c0-11 9-20 20-20s20 9 20 20v264.4c0 11.1-9 20-20 20zM308.8 959.3c-40.1 0-72.7-32.6-72.7-72.7v-341c-27.1-19.1-50.1-48.6-67-86-18.7-41.5-28.6-90.2-28.6-140.7 0-65.5 16.6-127.4 46.6-174.2 31.8-49.6 75-76.9 121.7-76.9s89.9 27.3 121.7 76.9c30.1 46.8 46.6 108.7 46.6 174.2 0 50.6-9.9 99.2-28.6 140.7-16.9 37.4-39.9 66.8-67 86v341c0 40.1-32.6 72.7-72.7 72.7z m0-851.6c-32.6 0-63.8 20.8-88 58.5-26 40.5-40.3 94.7-40.3 152.6 0 88.4 34.5 168.2 85.8 198.7l9.8 5.8v363.3c0 18 14.7 32.7 32.7 32.7s32.7-14.7 32.7-32.7V523.3l9.8-5.8c51.3-30.5 85.8-110.3 85.8-198.7 0-58-14.3-112.2-40.3-152.6-24.2-37.7-55.4-58.5-88-58.5z" fill="#2c2c2c" p-id="11374"></path><path d="M702.5 959.3c-21.4 0-43-9.5-61.1-27.7-7.4-7.4-11.7-18-11.7-29.1V554.8c0-0.6-0.8-1.3-1.8-1.8-67.3-32-110.7-103.4-110.7-182V131c0-11 9-20 20-20s20 9 20 20v239.8c0 63.2 34.5 120.5 87.9 145.9 15.2 7.2 24.6 21.8 24.6 37.9v347.8c0 0.5 0.1 0.8 0.2 1 14.3 14.3 30.7 19.2 44.9 13.3 12.4-5.1 20.4-17 20.4-30.3V554.8c0-16.2 9.4-30.7 24.6-37.9 53.4-25.4 87.9-82.7 87.9-145.9V131c0-11 9-20 20-20s20 9 20 20v239.8c0 78.6-43.5 150-110.7 182-1 0.5-1.8 1.3-1.8 1.8v331.8c0 29.5-17.7 55.9-45.1 67.2-8.9 3.9-18.2 5.7-27.6 5.7zM670 903.6z" fill="#2c2c2c" p-id="11375"></path><path d="M655.7 415.4c-11 0-20-9-20-20V131c0-11 9-20 20-20s20 9 20 20v264.4c0 11.1-9 20-20 20zM760.2 415.4c-11 0-20-9-20-20V131c0-11 9-20 20-20s20 9 20 20v264.4c0 11.1-9 20-20 20z" fill="#2c2c2c" p-id="11376"></path></svg>