<svg t="1766901273959" class="icon" viewBox="0 0 1024 1024" version="1.1" xmlns="http://www.w3.org/2000/svg" p-id="10759" width="32" height="32"><path d="M475.178667 94.208c20.352-11.861333 53.333333-11.818667 73.642666 0l310.357334 181.077333c20.352 11.861333 36.821333 40.704 36.821333 64v362.922667c0 23.466667-16.512 52.181333-36.821333 64l-310.357334 181.077333c-20.352 11.861333-53.333333 11.818667-73.642666 0l-310.357334-181.077333c-20.352-11.861333-36.821333-40.704-36.821333-64V339.285333c0-23.466667 16.512-52.181333 36.821333-64l310.357334-181.077333z m-272.64 218.325333L512 491.178667l309.461333-178.645334-298.453333-174.08c-4.352-2.56-17.664-2.56-22.016 0l-298.453333 174.08zM844.8 358.186667l-307.2 177.365333v358.997333l295.765333-172.544c4.608-2.688 11.434667-14.506667 11.434667-19.797333V358.186667z m-358.4 536.32v-358.997334L179.2 358.186667v344.021333c0 5.12 6.869333 17.152 11.434667 19.797333l295.765333 172.544z" fill="#000000" fill-opacity=".9" p-id="10760"></path></svg>