<svg class="icon" viewBox="0 0 1024 1024" xmlns="http://www.w3.org/2000/svg" width="24" height="24">
    <path d="M288 320m-56 0a56 56 0 1 0 112 0 56 56 0 1 0-112 0Z" fill="#2b2b2b"></path>
    <path
        d="M800 900H224c-90.44 0-164-73.56-164-164V288c0-90.44 73.56-164 164-164h576c90.44 0 164 73.56 164 164v448c0 90.44-73.56 164-164 164zM224 196c-50.72 0-92 41.28-92 92v448c0 50.72 41.28 92 92 92h576c50.72 0 92-41.28 92-92V288c0-50.72-41.28-92-92-92H224z"
        fill="#2b2b2b"></path>
    <path
        d="M96 708c-9.2 0-18.44-3.52-25.44-10.56-14.04-14.04-14.04-36.84 0-50.92l128-128c23.88-23.88 55.68-37.04 89.44-37.04s65.56 13.16 89.44 37.04c21.24 21.24 55.84 21.24 77.08 0l129.08-129.08c24-24 55.92-37.12 89.8-37.04 33.92 0.08 65.76 13.44 89.6 37.56l190.56 192.72c13.96 14.12 13.84 36.92-0.28 50.92-14.12 13.96-36.92 13.84-50.92-0.28l-190.56-192.72c-10.28-10.4-24-16.16-38.6-16.2h-0.16c-14.56 0-28.24 5.68-38.56 15.96l-129.08 129.08c-23.88 23.88-55.68 37.04-89.44 37.04s-65.56-13.16-89.44-37.04c-21.24-21.24-55.84-21.24-77.08 0l-128 128A35.864 35.864 0 0 1 96 708z"
        fill="#2b2b2b"></path>
</svg>