<svg
  t="1767159936786"
  class="icon"
  viewBox="0 0 1024 1024"
  version="1.1"
  xmlns="http://www.w3.org/2000/svg"
  p-id="6734"
  width="32"
  height="32"
>
  <path
    d="M160 161.28c-35.072 0-64 26.432-64 58.496v584.448c0 32.064 28.928 58.496 64 58.496h704c35.072 0 64-26.432 64-58.496V219.776c0-32.064-28.928-58.496-64-58.496h-704z m0 39.04h704c12.16 0 21.312 8.32 21.312 19.456v420.416l-134.336-122.688a22.4 22.4 0 0 0-15.424-5.632 22.272 22.272 0 0 0-15.232 6.208l-134.336 131.2-208.32-190.272a22.592 22.592 0 0 0-17.28-5.44 22.4 22.4 0 0 0-12.032 4.864l-209.664 174.72v-413.44c0-11.072 9.152-19.456 21.312-19.456zM576 267.904c-58.688 0-106.688 48-106.688 106.688 0 58.624 48 106.624 106.688 106.624s106.688-48 106.688-106.624c0-58.688-48-106.688-106.688-106.688z m0 42.688c35.584 0 64 28.352 64 64 0 35.584-28.416 64-64 64s-64-28.416-64-64c0-35.648 28.416-64 64-64zM361.984 499.84l209.664 191.488a22.4 22.4 0 0 0 15.488 5.632 22.272 22.272 0 0 0 15.168-6.272l134.4-131.2 148.608 135.808v108.928c0 11.136-9.152 19.52-21.312 19.52h-704c-12.16 0-21.312-8.32-21.312-19.52v-118.08l223.36-186.304z"
    fill="#2b2b2b"
  ></path>
</svg>
