<?xml version="1.0" standalone="no"?><!DOCTYPE svg PUBLIC "-//W3C//DTD SVG 1.1//EN" "http://www.w3.org/Graphics/SVG/1.1/DTD/svg11.dtd"><svg t="1769920510603" class="icon" viewBox="0 0 1024 1024" version="1.1" xmlns="http://www.w3.org/2000/svg" p-id="29391" xmlns:xlink="http://www.w3.org/1999/xlink" width="32" height="32"><path d="M402 577.3c41.4-51.7 193.4-237.8 250.2-277.9-72.6 142-215.5 288.1-301 427.4 158 43.9 229.6-8.1 316.7-68.9l-86.3-13.6c109.7-29.5 102-18.5 140.4-62.2 30.5-34.6 55.7-81.2 65-130.1l-71.4 7.3c22.8-10.8 73.4-30.1 81.5-40.8C818.7 390 875.3 117 876 60.3c-218.1 1.6-566.5 376-591.8 555-25.3 180-274.5 451.8 117.8-38z m0 0" p-id="29392"></path><path d="M150.5 896.5h726.1v63.8H150.5z" p-id="29393"></path></svg>