<?xml version="1.0" standalone="no"?><!DOCTYPE svg PUBLIC "-//W3C//DTD SVG 1.1//EN" "http://www.w3.org/Graphics/SVG/1.1/DTD/svg11.dtd"><svg t="1769920336118" class="icon" viewBox="0 0 1024 1024" version="1.1" xmlns="http://www.w3.org/2000/svg" p-id="9611" xmlns:xlink="http://www.w3.org/1999/xlink" width="32" height="32"><path d="M947.2 99.84v-5.12c0-2.56 0-2.56-2.56-5.12 0-2.56-2.56-2.56-2.56-2.56 0-2.56-2.56-2.56-2.56-5.12 0 0-2.56-2.56-5.12-2.56s-2.56-2.56-5.12-2.56h-5.12-2.56-2.56c-12.8 0-296.96 33.28-527.36 263.68C161.28 568.32 81.92 901.12 76.8 916.48c-2.56 12.8 5.12 28.16 17.92 30.72h5.12c12.8 0 23.04-7.68 25.6-20.48 0 0 12.8-48.64 38.4-120.32 7.68 0 25.6 2.56 51.2 2.56 99.84 0 312.32-23.04 491.52-202.24 10.24-10.24 17.92-17.92 25.6-28.16 7.68-10.24 10.24-23.04 2.56-33.28-2.56-2.56-5.12-5.12-7.68-5.12-2.56-5.12-35.84-28.16-69.12-53.76 148.48 2.56 148.48 0 158.72-10.24 0 0 2.56-2.56 2.56-5.12 125.44-189.44 128-360.96 128-371.2 0 2.56 0 2.56 0 0zM783.36 435.2h-202.24c-12.8 0-20.48 7.68-25.6 17.92-2.56 10.24 0 23.04 7.68 28.16 56.32 43.52 89.6 69.12 112.64 87.04l-5.12 5.12c-189.44 189.44-424.96 189.44-486.4 186.88 46.08-112.64 125.44-263.68 240.64-381.44C599.04 204.8 814.08 151.04 890.88 135.68c-2.56 51.2-25.6 168.96-107.52 299.52z" p-id="9612"></path></svg>