<?xml version="1.0" standalone="no"?><!DOCTYPE svg PUBLIC "-//W3C//DTD SVG 1.1//EN" "http://www.w3.org/Graphics/SVG/1.1/DTD/svg11.dtd"><svg t="1769920592109" class="icon" viewBox="0 0 1024 1024" version="1.1" xmlns="http://www.w3.org/2000/svg" p-id="34085" xmlns:xlink="http://www.w3.org/1999/xlink" width="32" height="32"><path d="M156.21688889 940.60088888l-7.28177777-7.28177777c-14.56355555-14.56355555 50.97244445-298.55288889 182.04444444-509.72444445 145.63555555-247.58044445 342.24355555-356.80711111 567.97866667-327.68h21.84533333l-7.28177777 21.84533333c-36.40888889 123.79022222-94.66311111 182.04444445-123.79022223 211.17155556-7.28177778 0-7.28177778 7.28177778-14.56355555 7.28177778-7.28177778 7.28177778-7.28177778 43.69066667-7.28177778 65.536 0 36.40888889-7.28177778 87.38133333-14.56355556 116.50844444-21.84533333 43.69066667-145.63555555 196.608-313.11644444 160.19911111-116.50844445 65.536-211.17155555 182.04444445-262.144 247.58044445l-14.56355556 14.56355555h-7.28177778zM826.14044445 117.75999999C425.64266667 117.75999999 250.88000001 642.04799999 199.90755556 845.93777777c50.97244445-72.81777778 131.072-152.91733333 225.73511111-203.88977778h14.56355556c145.63555555 36.40888889 262.144-101.94488889 283.98933333-138.35377778 7.28177778-21.84533333 14.56355555-65.536 14.56355556-101.94488888 0-43.69066667 7.28177778-65.536 14.56355555-80.09955556l21.84533334-21.84533333c29.12711111-29.12711111 72.81777778-72.81777778 109.22666666-174.76266667-29.12711111 0-43.69066667-7.28177778-58.25422222-7.28177778z" p-id="34086"></path></svg>