<svg class="icon" viewBox="0 0 1024 1024" xmlns="http://www.w3.org/2000/svg" width="24" height="24">
    <path
        d="M248.007056 0C125.538896 0 25.649674 118.494267 25.649674 264.08326c0 107.656377 53.828188 202.668548 136.015523 243.491268L136.918681 901.712471l-0.180632 1.806315c0 66.653025 48.589875 120.481214 108.559534 120.481214 59.96966 0 108.559534-54.189451 108.198271-120.481214l0-0.903158-24.02399-392.873523c37.932616-17.701887 71.710707-47.867349 96.457223-86.883754 29.081672-46.241665 44.43535-101.153643 44.43535-158.775093C470.364438 118.494267 370.655848 0 248.007056 0zM292.261775 465.126125l-20.230729 7.044629 27.094726 432.431822c-0.361263 35.042512-24.385253 64.124184-53.286294 64.124184-28.539778 0-52.744399-29.262304-53.286294-64.124184l27.094726-433.696243-19.327571-7.22526c-70.265655-26.010937-119.036162-108.378903-119.036162-199.597813 0-115.062268 74.781443-208.629388 166.722879-208.629388s166.722879 93.747751 166.722879 208.629388C415.091198 357.469748 364.514376 440.198977 292.261775 465.126125z"
        fill="#2b2b2b"></path>
    <path
        d="M970.533075 40.642089c-15.353678 0-27.817252 12.463574-27.817252 27.817252l0 247.465161c0 68.098077-43.532193 128.067737-108.198271 149.201623l-20.41136 6.863997 27.455989 432.793085c-0.541895 34.86188-24.746516 63.943553-53.647557 63.943553-28.720409 0-53.105662-29.262304-53.647557-64.124184l26.552831-432.251191-21.133886-6.502734c-66.291762-20.230729-112.533427-82.187335-112.533427-150.285412L627.152584 68.639972c0-15.353678-12.463574-27.817252-27.817252-27.817252s-27.817252 12.463574-27.817252 27.817252l0 247.103898c0 85.077439 53.105662 162.568354 131.138472 195.804551l-24.02399 390.344682-0.180632 1.625684c0 66.653025 48.770506 120.481214 108.920797 120.481214 60.150291 0 108.559534-54.189451 109.101429-120.481214l0-0.903158-24.565885-392.692891c76.045863-33.778091 126.442053-109.28206 126.442053-194.178868L998.350326 68.639972C998.350326 53.286294 985.886753 40.642089 970.533075 40.642089z"
        fill="#2b2b2b"></path>
    <path
        d="M724.512965 320.982184c15.353678 0 27.817252-12.463574 27.817252-27.817252L752.330217 68.45934c0-15.353678-12.463574-27.817252-27.817252-27.817252s-27.817252 12.463574-27.817252 27.817252l0 224.705592C696.695714 308.51861 709.159287 320.982184 724.512965 320.982184z"
        fill="#2b2b2b"></path>
    <path
        d="M849.690598 320.982184c15.173046 0 27.63662-12.463574 27.817252-27.817252L877.50785 68.45934c0-15.353678-12.463574-27.817252-27.817252-27.817252-15.353678 0-27.817252 12.463574-27.817252 27.817252l0 224.705592C821.873346 308.51861 834.33692 320.982184 849.690598 320.982184z"
        fill="#2b2b2b"></path>
</svg>