<?xml version="1.0" standalone="no"?><!DOCTYPE svg PUBLIC "-//W3C//DTD SVG 1.1//EN" "http://www.w3.org/Graphics/SVG/1.1/DTD/svg11.dtd"><svg t="1769914414403" class="icon" viewBox="0 0 1024 1024" version="1.1" xmlns="http://www.w3.org/2000/svg" p-id="7640" width="32" height="32" xmlns:xlink="http://www.w3.org/1999/xlink"><path d="M302.448 143.2c-74.912 0-142.336 77.2-142.336 181.616 0 104.432 67.424 181.632 142.336 181.632s142.336-77.2 142.336-181.632c0-104.416-67.424-181.616-142.336-181.616zM121.712 324.816c0-117.392 77.232-220.016 180.736-220.016 103.52 0 180.736 102.624 180.736 220.016 0 117.408-77.232 220.032-180.736 220.032-103.52 0-180.736-102.624-180.736-220.032z" fill="#000000" p-id="7641"></path><path d="M366.176 504.336a19.2 19.2 0 0 1 20.832 17.408l24.112 268.896c6.928 62.16-41.728 116.56-104.32 116.56-62.56 0-111.216-54.4-104.304-116.56l24.112-268.896a19.2 19.2 0 0 1 38.24 3.44l-24.112 269.104-0.048 0.448a66.56 66.56 0 1 0 132.256 0l-0.032-0.24-0.016-0.208-24.128-269.12a19.2 19.2 0 0 1 17.408-20.832zM788.096 504.336a19.2 19.2 0 0 1 20.848 17.408l24.096 268.896c6.928 62.16-41.728 116.56-104.304 116.56s-111.232-54.4-104.32-116.56l24.112-268.896a19.2 19.2 0 0 1 38.24 3.44l-24.112 269.104-0.048 0.448a66.56 66.56 0 1 0 132.256 0l-0.032-0.24v-0.208l-24.144-269.12a19.2 19.2 0 0 1 17.408-20.832z" fill="#000000" p-id="7642"></path><path d="M568.752 135.36a19.2 19.2 0 0 1 19.2 19.2v213.92a137.968 137.968 0 1 0 275.936 0V154.56a19.2 19.2 0 1 1 38.4 0v213.92c0 97.408-78.96 176.368-176.368 176.368S549.552 465.888 549.552 368.48V154.56a19.2 19.2 0 0 1 19.2-19.2z" fill="#000000" p-id="7643"></path><path d="M673.536 109.168a19.2 19.2 0 0 1 19.2 19.2V385.92a19.2 19.2 0 0 1-38.4 0V128.368a19.2 19.2 0 0 1 19.2-19.2z m102.816 0a19.2 19.2 0 0 1 19.2 19.2V385.92a19.2 19.2 0 1 1-38.4 0V128.368a19.2 19.2 0 0 1 19.2-19.2z" fill="#000000" p-id="7644"></path></svg>