<svg class="icon" viewBox="0 0 1024 1024" xmlns="http://www.w3.org/2000/svg" width="24" height="24">
    <path d="M212.992 526.336 212.992 526.336 212.992 526.336 215.04 526.336 212.992 526.336Z" p-id="58624"></path>
    <path
        d="M434.176 577.536l-96.256-75.776-2.048 0-2.048 2.048c-26.624 24.576-59.392 40.96-98.304 40.96-38.912 0-73.728-16.384-100.352-40.96l-2.048-2.048c-24.576-26.624-40.96-59.392-40.96-98.304 0-38.912 16.384-73.728 40.96-100.352l0 0 0 0c26.624-24.576 61.44-40.96 100.352-40.96 38.912 0 73.728 16.384 100.352 40.96l2.048 2.048 96.256-75.776c-8.192-14.336-12.288-32.768-12.288-51.2 0-28.672 12.288-53.248 30.72-71.68 18.432-18.432 45.056-30.72 71.68-30.72 28.672 0 53.248 12.288 71.68 30.72C614.4 122.88 626.688 149.504 626.688 178.176c0 28.672-12.288 53.248-30.72 71.68-18.432 18.432-45.056 30.72-71.68 30.72-26.624 0-51.2-10.24-69.632-28.672L356.352 327.68c14.336 22.528 22.528 47.104 22.528 75.776 0 28.672-8.192 53.248-22.528 75.776l96.256 75.776c18.432-16.384 43.008-28.672 69.632-28.672 28.672 0 53.248 12.288 71.68 30.72 18.432 18.432 30.72 45.056 30.72 73.728 0 28.672-12.288 53.248-30.72 71.68l0 0c-18.432 18.432-45.056 30.72-71.68 30.72-28.672 0-53.248-12.288-71.68-30.72-18.432-18.432-30.72-45.056-30.72-71.68C421.888 610.304 425.984 593.92 434.176 577.536L434.176 577.536zM561.152 591.872 561.152 591.872c-10.24-10.24-22.528-16.384-36.864-16.384s-26.624 6.144-36.864 16.384C477.184 602.112 471.04 614.4 471.04 628.736c0 14.336 6.144 26.624 14.336 36.864 10.24 10.24 22.528 14.336 36.864 14.336s26.624-6.144 36.864-14.336l0 0c10.24-10.24 14.336-22.528 14.336-36.864C575.488 614.4 569.344 602.112 561.152 591.872L561.152 591.872zM301.056 337.92 301.056 337.92c-16.384-16.384-38.912-26.624-63.488-26.624-24.576 0-47.104 10.24-63.488 26.624l0 0c-16.384 16.384-26.624 38.912-26.624 63.488 0 24.576 10.24 47.104 26.624 63.488l0 2.048c16.384 16.384 38.912 26.624 63.488 26.624 24.576 0 47.104-10.24 63.488-26.624l0 0c16.384-16.384 26.624-38.912 26.624-65.536C327.68 378.88 319.488 356.352 301.056 337.92L301.056 337.92 301.056 337.92zM561.152 141.312 561.152 141.312c-10.24-10.24-22.528-16.384-36.864-16.384s-26.624 6.144-36.864 16.384C477.184 149.504 471.04 163.84 471.04 178.176c0 14.336 6.144 26.624 14.336 36.864 10.24 10.24 22.528 14.336 36.864 14.336s26.624-6.144 36.864-14.336c10.24-10.24 16.384-22.528 16.384-36.864C575.488 163.84 569.344 149.504 561.152 141.312L561.152 141.312z">
    </path>
    <path
        d="M620.544 444.416l102.4 110.592 0 0 2.048-2.048c20.48-20.48 47.104-32.768 77.824-32.768 30.72 0 59.392 12.288 79.872 32.768l2.048 0c20.48 20.48 32.768 47.104 32.768 77.824 0 30.72-12.288 59.392-32.768 79.872l0 0 0 0c-20.48 20.48-49.152 32.768-79.872 32.768-30.72 0-59.392-12.288-79.872-32.768l0-2.048-178.176 110.592c6.144 12.288 10.24 24.576 10.24 40.96 0 22.528-8.192 43.008-24.576 57.344-14.336 14.336-34.816 24.576-57.344 24.576-22.528 0-43.008-8.192-57.344-24.576-14.336-14.336-24.576-34.816-24.576-57.344 0-22.528 8.192-43.008 24.576-57.344 14.336-14.336 34.816-24.576 57.344-24.576 22.528 0 40.96 8.192 55.296 22.528l178.176-110.592c-10.24-16.384-16.384-36.864-16.384-59.392 0-22.528 6.144-43.008 16.384-59.392l-102.4-110.592c-14.336 14.336-34.816 22.528-55.296 22.528-22.528 0-43.008-8.192-57.344-24.576-14.336-14.336-24.576-34.816-24.576-57.344s8.192-43.008 24.576-57.344l0 0c14.336-14.336 34.816-24.576 57.344-24.576 22.528 0 43.008 10.24 57.344 24.576 14.336 14.336 24.576 34.816 24.576 57.344C630.784 417.792 628.736 432.128 620.544 444.416L620.544 444.416zM522.24 432.128 522.24 432.128c8.192 8.192 18.432 12.288 28.672 12.288s22.528-4.096 28.672-12.288c8.192-8.192 12.288-18.432 12.288-28.672 0-12.288-4.096-22.528-12.288-28.672-8.192-8.192-18.432-12.288-28.672-12.288s-22.528 4.096-28.672 12.288l0 0c-8.192 8.192-12.288 18.432-12.288 28.672C509.952 415.744 514.048 425.984 522.24 432.128L522.24 432.128zM751.616 684.032 751.616 684.032c12.288 12.288 30.72 20.48 51.2 20.48 20.48 0 38.912-8.192 51.2-20.48l0 0c12.288-12.288 20.48-30.72 20.48-51.2 0-20.48-8.192-36.864-20.48-51.2l0 0c-12.288-12.288-30.72-20.48-51.2-20.48-20.48 0-36.864 8.192-51.2 20.48l0 0c-14.336 12.288-20.48 30.72-20.48 51.2C731.136 653.312 739.328 671.744 751.616 684.032L751.616 684.032 751.616 684.032zM444.416 892.928 444.416 892.928c8.192 8.192 18.432 12.288 28.672 12.288s22.528-4.096 28.672-12.288c8.192-8.192 12.288-18.432 12.288-28.672 0-10.24-4.096-22.528-12.288-28.672-8.192-8.192-18.432-12.288-28.672-12.288s-22.528 4.096-28.672 12.288c-8.192 8.192-12.288 18.432-12.288 28.672C432.128 874.496 436.224 886.784 444.416 892.928L444.416 892.928z">
    </path>
</svg>